<svg id="Layer_1" data-name="Layer 1" xmlns="http://www.w3.org/2000/svg" viewBox="0 0 672 161.01"><defs><style>.cls-1{fill:#62c7c7;}.cls-2{fill:none;stroke:#429492;stroke-miterlimit:10;}.cls-3{isolation:isolate;}</style></defs><title>maria-logo</title><path class="cls-1" d="M121,49.15c3.39-3.19,6.58-6.17,9.56-8.74,3.18-2.77,6-5.13,8.53-7.5l5.13-5.14A36.82,36.82,0,0,0,147,25.2l.41-.41v-.41c-.21-.2-.41-.41-.62-.41-.2-.2-.41,0-1,.21a21.37,21.37,0,0,0-3,.82,20,20,0,0,0-4,2.16,106.28,106.28,0,0,0-10.49,6.37c-4.11,2.77-8.11,5.55-12.33,8.53-5.55,4.52-11.1,8.94-16.44,13.25S89.92,63,86.74,65.59l-1,.62-.62.61a22,22,0,0,1-3.39,2.57,1.37,1.37,0,0,1-1.75,0c-.41-.82-.41-1.23.41-1.74a3,3,0,0,1,.83-.62c.2-.21.61-.41,1-.82a6.91,6.91,0,0,1,1.55-1l.61-1,9.15-7.91c4.93-4.73,9.76-9.15,14.28-13.67S116.33,34,119.93,30a74.55,74.55,0,0,0,6.17-7.5,26.33,26.33,0,0,0,4.21-6.16c1.23-2,1.95-3.4,1.95-4a2.92,2.92,0,0,0-.2-1.54c-3.6-2.57-11.72.2-24.46,8.32-4.22,3-8.94,6.37-14.08,10.28S83.24,37.33,78,41.54l-3,2.57-1,1c-2.57,3.39-5.55,6.58-8.53,10s-6.16,6.58-9.35,9.56c-5.34,5.14-10.69,10-15.93,14.69-5.34,4.52-10.48,8.53-15.1,11.72a68.29,68.29,0,0,1-5.76,4,42.09,42.09,0,0,1-5.75,3.39c-2,1-3.4,1.74-4.73,2.36a5.2,5.2,0,0,1-3.19.62c-.2-.21-.41-.41-.41-.62-.62-.2-.82-.41-.62-.82a1.46,1.46,0,0,1,1-.82c1-.21,3.19-1.75,6.58-4.52s8.12-6.79,14.08-11.93C31.86,77.82,38,72.48,44.81,66.82S58.48,54.9,65.67,48.74l7.71-6.17L76.15,40c4.21-5.55,7.5-10.89,9.15-15.72,2-4.93,2-8.94.41-12.13L84,10.2l-1-1a17.46,17.46,0,0,0-7.5-2.36,42.92,42.92,0,0,0-10.28,0A114.56,114.56,0,0,0,53,8.76a126.34,126.34,0,0,0-12.54,3.8,100.24,100.24,0,0,0-13,5.55,95.06,95.06,0,0,0-10.48,6.37,30.27,30.27,0,0,0-6.78,6.79,9.28,9.28,0,0,0-2.16,6.57,2.91,2.91,0,0,0,2.57,2.57c1.54.62,3.59.62,6.16.62a44.31,44.31,0,0,0,8.74-1.54c3.39-.82,6.78-2,10.69-3.19,3.8-1.54,7.19-3,10.68-4.72a94.91,94.91,0,0,0,8.53-4.94A33.73,33.73,0,0,0,61,21.92c1.34-1.55,2-3,1.75-4a1.51,1.51,0,0,1,.21-.82c.2-.42.41-.42.61-.42a1.32,1.32,0,0,1,1.24,1c.41,1.75-.21,3.6-2,5.55a43.61,43.61,0,0,1-6.37,5.55,55.52,55.52,0,0,1-9.14,5.14A79.91,79.91,0,0,1,37.1,38.15a86.49,86.49,0,0,1-10.48,3.19,66.81,66.81,0,0,1-10,1.75,22.26,22.26,0,0,1-7.71-.83c-2.16-.61-3.18-2.15-3.39-4.52a12.48,12.48,0,0,1,2.36-7.91,34.6,34.6,0,0,1,7.51-7.5,54.24,54.24,0,0,1,11.09-6.58c4.22-2.16,8.53-3.8,13-5.55a87.08,87.08,0,0,1,13.67-4A110.2,110.2,0,0,1,66.39,4a49.46,49.46,0,0,1,11.3.62,14.42,14.42,0,0,1,7.71,3.8h.41c2.57,2.78,3.6,6.37,2.78,10.9a48,48,0,0,1-5.76,14.28L80.47,37l7-5.34c3.59-2.57,6.78-5.14,10.27-7.71,3.19-2.36,6.37-4.73,9.35-6.58,2.78-2,5.55-3.59,8.12-5.13a46.45,46.45,0,0,1,7.51-3.4,19.82,19.82,0,0,1,6.37-1.23,8.73,8.73,0,0,1,4.72,1.23,3.13,3.13,0,0,1,1,3.6,20.78,20.78,0,0,1-2.36,5.34,47.56,47.56,0,0,1-4.73,6.58c-1.95,2.37-3.8,4.73-5.75,7-1.24,1.23-2.57,2.77-4,4-1.24,1.54-2.57,3-4,4.52l-3.6,4,4.73-3.6c4.21-3.18,8.53-6.17,12.33-8.73,4-2.57,7.5-4.73,10.69-6.38a18.45,18.45,0,0,1,4.21-2.15,28,28,0,0,1,3.4-1,6.45,6.45,0,0,1,3,.61,2.92,2.92,0,0,1,1,2.57v.62h-.41A9.91,9.91,0,0,1,146.75,29c-1.54,1.44-3.39,3.18-5.75,5.34s-5.14,4.52-8.33,7.19-6.57,5.76-10.27,9.15L116,57.06c-2.78,2.78-5.55,5.76-8.33,9.15s-5.55,6.58-7.91,9.76a47.48,47.48,0,0,0-5.35,8.74c-1,2.57-1.23,4.52-.41,5.75s3.19,1.54,6.79.62c1.23-.21,3.18-.82,5.75-1.54s5.34-1.75,8.53-3c3-1,6.37-2.37,9.56-3.6,3.39-1.23,6.57-2.57,9.56-3.8s5.75-2.37,8.11-3.39A45.55,45.55,0,0,0,147.88,73a1.65,1.65,0,0,1,2,.21c.41.41,0,1-.83,1.74a42.82,42.82,0,0,1-6,3c-2.57,1-5.55,2.37-8.73,3.6s-6.58,2.57-10,4c-3.39.82-6.78,2.16-9.76,3.18-3.19,1-6,2.16-8.53,2.78-2.57.82-4.22,1.23-5.35,1.54-3.8.62-6.37.41-7.91-.82a5.62,5.62,0,0,1-1.75-4.73c.41-2.57,1.75-5.75,4.22-9.56A104.79,104.79,0,0,1,104,66.62c3.19-3.8,6.37-7.19,9.56-10.69C116.74,53.16,119.31,50.69,121,49.15ZM24.46,89.84c4.73-3.59,9.56-7.5,14.9-11.92s10.69-9.35,15.72-14.49L66,52.54l-8.53,7.71-29,24.66c-2,1.75-3.81,3.19-5.55,4.93s-3.39,3-5.14,4.53l-1.23,1,1.23-.61Z" transform="translate(0 -3.96)"/><path class="cls-1" d="M141.82,84.91a3.12,3.12,0,0,1-1.54-3.59,9.82,9.82,0,0,1,2.57-4.73,19.47,19.47,0,0,1,4.93-4,13.18,13.18,0,0,1,6-1.75,7.13,7.13,0,0,1,3.6.83,4.47,4.47,0,0,1,2.16,2c.2.41.2.61-.21.82a.92.92,0,0,1-1,0c-.61-.41-1-.62-1.54-1a4.6,4.6,0,0,0-2.77-.61A8.9,8.9,0,0,0,149.73,74a17.37,17.37,0,0,0-4,3,18.05,18.05,0,0,0-2.57,3.39c-.42,1-.42,1.75.2,2.16a7.65,7.65,0,0,0,4-.62,33.73,33.73,0,0,0,5.14-2.57A48.36,48.36,0,0,0,157.85,76c1.75-1.23,3.19-2.36,4.52-3.18,1-.83,2-1,2.16-.42a1.41,1.41,0,0,1-.2,1.75,7.56,7.56,0,0,0-3,3.6c-.42,1.54-.42,2.36.41,2.77s2.15.21,3.8-.61a44.67,44.67,0,0,0,5.55-2.57c1.95-1,3.6-2,5.34-3s2.78-1.75,3.19-2a1,1,0,0,1,1.54.42c.41.61.21,1-.21,1.54-.82.41-1.95,1.23-3.59,2.16a46.66,46.66,0,0,1-5.35,3A35.31,35.31,0,0,1,166.28,82a7.83,7.83,0,0,1-4.73.42,2.64,2.64,0,0,1-2.16-2.16,4.44,4.44,0,0,1,.41-3.19c-1.23.82-2.56,2-4.21,3s-3.39,2-5.14,2.78-3.39,1.23-4.72,1.74C143.57,85.43,142.54,85.43,141.82,84.91Z" transform="translate(0 -3.96)"/><path class="cls-1" d="M186.83,84.3a4.41,4.41,0,0,1,.21-4.73,23.86,23.86,0,0,1,3.8-5.14V74a13.16,13.16,0,0,1-1.23-2.57,23.94,23.94,0,0,1-.62-2.57c-3,2-5.34,3.6-7,4.73s-3.18,2-4,2.57c-.82,0-1.23-.21-1.23-.41a1.62,1.62,0,0,1-.2-.83c.2-.2.2-.41.41-.61a10.32,10.32,0,0,1,1.95-1.24,17.5,17.5,0,0,0,2.36-1.54c.82-.61,2-1.23,3.19-2.16s2.77-2,4.52-3l.41-1A11,11,0,0,1,192,60.25a17,17,0,0,1,4.52-4,30.79,30.79,0,0,1,5.14-2.77,11.93,11.93,0,0,1,4-.83c.82.21,1,.62.82,1.75a6.37,6.37,0,0,1-2.57,3.39c-1.75,1.23-3,2.37-4,3.19s-2.57,2-4.52,3.39l-4,3c0,1.75.83,3.8,2.57,6.16.41.83.41,1.24,0,1.24a17.26,17.26,0,0,0-3.18,3.39,6.39,6.39,0,0,0-1.75,4c.21.82.62,1,1.95,1a21.27,21.27,0,0,0,4.52-.62,44.68,44.68,0,0,0,6-2c2.15-.83,4.21-1.75,6.37-2.57s4-2,6-2.57c2-.82,3.18-1.54,4.52-2.16.62-.41.82-.41,1-.21l.61.62c.21.21.21.41.21.82-.21.41-.21.41-.41.41-1.54.83-3.6,2.16-6.78,3.6a99.91,99.91,0,0,1-9.56,4.21A49.2,49.2,0,0,1,194,85.32C189.81,85.84,187.65,85.43,186.83,84.3Zm16.55-29.6a20.76,20.76,0,0,0-7,3.39,16.27,16.27,0,0,0-5.14,5.75,17.46,17.46,0,0,1,3.19-2.56c1-.62,1.95-1.55,2.77-2.16S199.16,57.58,200,57A14.89,14.89,0,0,0,203.38,54.7Z" transform="translate(0 -3.96)"/><path class="cls-1" d="M214.89,82.65a3.38,3.38,0,0,1-.41-3.18,9.37,9.37,0,0,1,1.74-3.19,12.32,12.32,0,0,1-2.36,1.23c-.62.21-1,.41-1.75.62-.61.41-1,.2-1.23-.41-.41-.62-.21-1,.41-1.23a19.21,19.21,0,0,0,3-1.55c.62-.41,1.23-.82,1.95-1.23a10.78,10.78,0,0,1,2-1.23c.61-.41,1.54-1,2.77-1.75a1,1,0,0,1,1.54.41c.41.62.21,1-.2,1.54a7.51,7.51,0,0,0-2.57,2.57c-.62.82-1,1.75-1.75,2.57-.82,1.54-1,2.36-.82,2.78a2.32,2.32,0,0,0,1.95.61,16.79,16.79,0,0,0,3-.41,21.75,21.75,0,0,0,2.57-.62,42,42,0,0,0,7.19-2.77l7.92-3.8c.41-.41.61-.41.82-.41s.41.2.82.41c.41.61.21,1.23-.61,1.74-1,.62-3,1.75-5.35,3-2.57,1.24-5.14,2.37-7.91,3.4a44.94,44.94,0,0,1-7.71,2.15Q216,84.2,214.89,82.65ZM222.8,65.8c-.2-.21-.2-.41-.2-.82s.2-.42.61-.42l2.16-2.15a21.26,21.26,0,0,0,1.95-2.57c.41-.83.82-.83,1.24-.41.82.41,1,.82.61,1.23A15.4,15.4,0,0,1,224.45,66C223.62,66.41,223,66.41,222.8,65.8Z" transform="translate(0 -3.96)"/><path class="cls-1" d="M389.39,62.41a.76.76,0,0,1-.21-.62.44.44,0,0,1,.41-.41l2-2a14.51,14.51,0,0,0,1.74-2.37c.21-.61.62-.82,1.24-.2.82.41,1,.82.61,1.23a11.93,11.93,0,0,1-4,4.73C390.31,63,389.59,63,389.39,62.41Z" transform="translate(0 -3.96)"/><path class="cls-1" d="M396.07,63.23a.75.75,0,0,1-.21-.62.45.45,0,0,1,.41-.41l2-2A14.09,14.09,0,0,0,400,57.88c.21-.61.62-.82,1.24-.2.82.41,1,.82.61,1.23a11.8,11.8,0,0,1-4,4.73C396.89,63.84,396.48,63.84,396.07,63.23Z" transform="translate(0 -3.96)"/><path class="cls-1" d="M234.93,84.91a3.11,3.11,0,0,1-1.54-3.59A9.73,9.73,0,0,1,236,76.59a19.47,19.47,0,0,1,4.93-4,13.18,13.18,0,0,1,6-1.75,4.29,4.29,0,0,1,3,.83,4.74,4.74,0,0,1,1.54,2c.21.41.21.61-.21.82a.9.9,0,0,1-1,0,2.44,2.44,0,0,1-1-1c-.21-.41-.82-.61-2.16-.61A8.59,8.59,0,0,0,242.74,74a17.66,17.66,0,0,0-4,3,18.49,18.49,0,0,0-2.57,3.39c-.41,1-.41,1.75.21,2.16a6.73,6.73,0,0,0,3.8-.62,37.37,37.37,0,0,0,4.93-2.57A42.1,42.1,0,0,0,250,76c1.55-1.23,3-2.36,4.22-3.18a1.06,1.06,0,0,1,1.75,0c.41.61.61,1,.2,1.23a2.79,2.79,0,0,0-1,2,5.38,5.38,0,0,0,.21,2.57,6.76,6.76,0,0,0,1.54,2.57,6.63,6.63,0,0,0,3.19,1.54,12,12,0,0,0,4.52-.41,21.36,21.36,0,0,0,5.14-1.95,25.28,25.28,0,0,0,4.52-3,11.21,11.21,0,0,0,2.77-3.81c.21-.61.62-.61,1.24-.2s.61,1.23,0,2.16a18.88,18.88,0,0,1-2.78,3.18c-1.23,1-2.57,2.16-4,3.19a29.15,29.15,0,0,1-5.14,2.36,13.83,13.83,0,0,1-5.75.62,7.3,7.3,0,0,1-4.93-2.57,10.54,10.54,0,0,1-2.37-6.17,33.52,33.52,0,0,1-4.52,3.6c-1.75,1-3.6,2.16-5.34,3a26.34,26.34,0,0,1-5.14,1.95C236.67,85.43,235.54,85.43,234.93,84.91Z" transform="translate(0 -3.96)"/><path class="cls-1" d="M329.58,20.37c4.21-1,9.14-2.36,14.69-3.39,5.55-1.23,11.1-2.36,16.86-3.59,5.75-1,11.3-2.37,16.85-3.4s10.48-2,14.9-2.56l1.54-1.24c1.24-.82,2.16-1,2.57-.61.62.41.62.82,0,1.54l2-.41a189.65,189.65,0,0,1,22-2.16,63.7,63.7,0,0,1,15.31,1l.62.61a.4.4,0,0,1,0,.62,1.15,1.15,0,0,1-1.75.62,60.24,60.24,0,0,0-13.87-.83,132.93,132.93,0,0,0-21.69,2l-5.75.82c-2.16,1.95-4.73,4.21-7.2,6.78s-5.34,5.34-8.12,8.53L352.6,52.13A210.65,210.65,0,0,1,373.87,50a101.52,101.52,0,0,1,16.24.21c1,.2,1.54.61,1.23,1s-.82.62-2.16.62a97.3,97.3,0,0,0-19,0,147.68,147.68,0,0,0-20,2.57c-6,6.17-11.71,12.33-17.06,18.5-5.55,6-10.69,11.92-15.52,17.47-4.21,4.93-8.32,9.35-11.71,13.67-3.6,4.21-6.58,8.12-9.15,11.51-1.54,2.16-2.77,3.8-3.6,5.14a32.36,32.36,0,0,0-1.95,3.39,15.66,15.66,0,0,0-.82,2.15,2.06,2.06,0,0,0-.21.83.86.86,0,0,1-.61,1.23c-.41.41-.82.21-1.24-.62-.61-1.23,0-3,1.55-5.55s3.39-5.13,5.55-8.11c2.56-3.6,5.54-7.51,9.14-11.72s7.5-8.74,11.72-13.87c4.72-5.14,9.55-10.69,14.69-16.24,5.14-5.76,10.49-11.51,16.24-17.47-5.55,1-10.89,2.16-15.52,3.39s-8.73,2.77-12.12,4a3.2,3.2,0,0,1-2,0c-.61-.62-.61-.82-.2-1a1.64,1.64,0,0,0,.82-.82,86.14,86.14,0,0,1,14.28-4.73c5.35-1.23,11.1-2.36,16.86-3.39,4.73-4.93,9.14-10,13.87-14.9s9.15-9.77,13.88-14.49c2.56-2.57,4.93-5.14,7-7.2l6.17-6.16c-4.52.82-9.35,1.74-14.7,2.57-5.34,1-10.48,2.15-15.72,3.18s-10.48,2.16-15.52,3.39-9.55,2.16-13.46,3.19c-1.54.62-2.36.41-2.57-.41C327.62,21.3,328.24,20.78,329.58,20.37Z" transform="translate(0 -3.96)"/><path class="cls-1" d="M373.25,84.91a3.12,3.12,0,0,1-1.54-3.59,9.82,9.82,0,0,1,2.57-4.73,19.47,19.47,0,0,1,4.93-4,13.22,13.22,0,0,1,6-1.75,7.11,7.11,0,0,1,3.6.83,4.43,4.43,0,0,1,2.16,2c.21.41.21.61-.21.82a.9.9,0,0,1-1,0c-.62-.41-1-.62-1.55-1a4.6,4.6,0,0,0-2.77-.61A8.9,8.9,0,0,0,381.17,74a17.66,17.66,0,0,0-4,3,18.49,18.49,0,0,0-2.57,3.39c-.41,1-.41,1.75.2,2.16a7.65,7.65,0,0,0,4-.62,29.36,29.36,0,0,0,5.14-2.57A48.5,48.5,0,0,0,389.29,76c1.74-1.23,3.18-2.36,4.52-3.18,1-.83,1.95-1,2.16-.42a1.41,1.41,0,0,1-.21,1.75,7.67,7.67,0,0,0-3,3.6c-.41,1.54-.41,2.36.41,2.77s2.16.21,3.8-.61a44.67,44.67,0,0,0,5.55-2.57c1.95-1,3.6-2,5.35-3s2.77-1.75,3.18-2a1,1,0,0,1,1.54.42c.41.61.21,1-.2,1.54-.82.41-2,1.23-3.6,2.16a47.37,47.37,0,0,1-5.34,3A35.79,35.79,0,0,1,397.71,82a7.83,7.83,0,0,1-4.73.42,2.74,2.74,0,0,1-2.15-2.16,4.34,4.34,0,0,1,.41-3.19c-1.24.82-2.57,2-4.22,3s-3.39,2-5.13,2.78-3.4,1.23-4.73,1.74C374.9,85.43,373.87,85.43,373.25,84.91Z" transform="translate(0 -3.96)"/><path class="cls-1" d="M361.74,135.89c0-1.75,1-3.6,3.39-6a81.55,81.55,0,0,1,8.33-7.5,140.86,140.86,0,0,1,11.71-8.53c4.53-3,9.15-6.16,14.08-9.35l4.22-2.57.41-.61a157.53,157.53,0,0,0,10.69-13.88c3.18-4.73,6.16-8.94,8.73-12.74-5.55,5.55-10,8.94-13.26,10.27s-5.55.83-6.57-1.23a4.06,4.06,0,0,1,.2-4.52,17.64,17.64,0,0,1,4.52-4.73,34.57,34.57,0,0,1,6.58-4c2.57-1.23,4.93-2.36,7-3.18.82,0,1.54.2,1.75.62a2.1,2.1,0,0,1-1,1.74,70.69,70.69,0,0,0-7.91,3.39,24.91,24.91,0,0,0-6,4,13.6,13.6,0,0,0-3.19,3.6,2.25,2.25,0,0,0,.21,2.77q.92.93,3.39,0a25,25,0,0,0,5.14-3.18,46.94,46.94,0,0,0,5.75-4.73c1.95-1.75,3.6-3.39,5.14-4.93.41-.62.82-.62,1.54-.21s.82.82.41,1.54c-1.54,2.57-3.6,6.17-6.16,10.49a142.55,142.55,0,0,1-11.72,16.23l4.93-3.39c3.8-2.36,7.5-4.52,11.1-6.58s7-4.21,10.48-6.16,6.38-3.8,8.94-5.55a63.19,63.19,0,0,0,6.79-4.73c.61-.61,1.23-.61,1.74.41.42,0,.42.21.42.41a3.18,3.18,0,0,1-.62.83c-1.95,1.23-4.21,2.77-6.78,4.72-2.78,1.75-5.76,3.6-8.94,5.76-3.4,2.16-6.79,4.21-10.49,6.37-3.59,2.36-7.19,4.73-11.1,7l-10.27,6.16L400,109.47l-5.34,6c-3.8,4-7.5,7.71-11.1,10.9a71.87,71.87,0,0,1-9.76,7.91c-1.54,1-3,1.95-4,2.57a16.81,16.81,0,0,1-3.19,1.75,6.45,6.45,0,0,1-2.77,0,3.21,3.21,0,0,1-1.95-2.16l-.11-.51Zm4,.2c1.75-.41,3.8-1.54,6.58-3.6s6-4.93,9.56-8.11,7-6.58,11.09-10.49a39.71,39.71,0,0,1,2.78-3,39.87,39.87,0,0,1,3-3v-.41l-5.34,3.6c-3.6,2.36-7,4.52-10,6.58s-6,4.21-8.53,6.16a93.36,93.36,0,0,0-7.2,6.37,16.35,16.35,0,0,0-3.39,4.52v1a.75.75,0,0,0,.21.62C364.31,136.5,364.72,136.5,365.75,136.09Z" transform="translate(0 -3.96)"/><path class="cls-1" d="M442.21,74.33a9,9,0,0,1,3.39-4.22,11.4,11.4,0,0,1,4.73-2.36,9.18,9.18,0,0,1,3.39,0,2.28,2.28,0,0,1,1.95,2,3.2,3.2,0,0,1-1.23,3,24.32,24.32,0,0,1-3.39,2.57,18,18,0,0,1-4,2c-1.23.62-2.16.83-2.57,1a5.81,5.81,0,0,0,3.39,3.39,10.11,10.11,0,0,0,6.17.62,44.7,44.7,0,0,0,12.33-3.6c4-2,7.71-3.59,10.69-5.75a1.05,1.05,0,0,1,1.75,0c.51.61.41,1-.41,1.75q-2.33,1.53-5.55,3.39c-2.16,1-4.53,2.15-6.79,3.18-2.36.82-4.72,1.75-7.19,2.37a30.63,30.63,0,0,1-7.19.82,13.51,13.51,0,0,1-4.22-.62,8.62,8.62,0,0,1-5.34-5.34A4.46,4.46,0,0,1,442.21,74.33Zm11.1-4.73c-1.95-.41-3.8.21-5.76,1.75A10.88,10.88,0,0,0,444,76.49a14,14,0,0,1,2.16-1,16.49,16.49,0,0,0,3.18-1.75c1-.72,2.16-1.23,3-1.95A3.49,3.49,0,0,0,453.31,69.6Z" transform="translate(0 -3.96)"/><path class="cls-1" d="M485.07,84.3a4.38,4.38,0,0,1,.2-4.73,23.86,23.86,0,0,1,3.8-5.14V74a14.46,14.46,0,0,1-1.23-2.57,23.94,23.94,0,0,1-.62-2.57c-3,2-5.34,3.6-7,4.73s-3.18,2-4,2.57c-.83,0-1.24-.21-1.24-.41a1.62,1.62,0,0,1-.2-.83c.2-.2.2-.41.41-.61a11,11,0,0,1,1.95-1.24,18.17,18.17,0,0,0,2.37-1.54c.82-.61,2-1.23,3.18-2.16s2.78-2,4.52-3l.41-1a11.09,11.09,0,0,1,2.57-5.14,17.08,17.08,0,0,1,4.53-4,30.71,30.71,0,0,1,5.13-2.77,11.93,11.93,0,0,1,4-.83c.82.21,1,.62.82,1.75a6.32,6.32,0,0,1-2.57,3.39c-1.74,1.23-3,2.37-4,3.19s-2.57,2-4.53,3.39l-4,3c0,1.75.82,3.8,2.57,6.16.41.83.41,1.24,0,1.24A17,17,0,0,0,489,78.13a6.39,6.39,0,0,0-1.75,4c.21.82.62,1,2,1a22.2,22.2,0,0,0,4.52-.62,45.07,45.07,0,0,0,6-2c2.16-.83,4.21-1.75,6.37-2.57s4-2,6-2.57c2-.82,3.19-1.54,4.52-2.16.62-.41.82-.41,1-.21l.62.62c.2.21.2.41.2.82-.2.41-.2.41-.41.41-1.54.83-3.6,2.16-6.78,3.6a98.81,98.81,0,0,1-9.56,4.21,49.2,49.2,0,0,1-9.35,2.57C488.05,85.84,486.2,85.43,485.07,84.3Zm16.85-29.6a20.76,20.76,0,0,0-7,3.39,16.27,16.27,0,0,0-5.14,5.75A17.46,17.46,0,0,1,493,61.28a33.9,33.9,0,0,0,2.77-2.16c.83-.62,2-1.54,2.78-2.16A17.14,17.14,0,0,0,501.92,54.7Z" transform="translate(0 -3.96)"/><path class="cls-1" d="M500,104.75a6.1,6.1,0,0,1-3.19-2.16,4.82,4.82,0,0,1-.82-3.8,6.42,6.42,0,0,1,2.77-4.53,26,26,0,0,1,5.76-3.39,65.17,65.17,0,0,1,7.19-2.77c2.57-.82,4.93-1.75,7.2-2.37l2.56-.61c.62-1.54,1.24-3,1.55-4,.41-1.23.61-2.57,1-3.6.42-1.23.62-2.57,1-4s.82-3.18,1.54-5.34l-.61.41c-1.75,1.24-3.39,2.78-5.35,4a83.49,83.49,0,0,1-7.19,4.52c-.82.41-1.23.41-1.75-.41-.2-.2-.2-.41-.2-.82.2-.41.2-.62.41-.82,4.21-2.57,7.5-4.73,9.76-6.17,2.36-1.75,4.52-3,6-4.21a3,3,0,0,1,.62-.83c.41-.2.61-.41,1-.41s.61.21.61.41c.21.42,0,.83-.41,1.75-1.23,4-2.36,7.5-3,10.28a55.71,55.71,0,0,1-3,8.73h1c2.57-.82,5.55-1.74,8.53-2.77s6.16-2,9.35-3.19c2.57-1,5.14-2,7.5-3a26.38,26.38,0,0,0,6.58-3.39c0-.2.2-.41.62-.41s.82,0,1,.41c.41.21.41.62,0,1-.2.41-.41.62-.61.62a41.78,41.78,0,0,1-6.79,3.59c-2.57,1-5.13,2.16-7.5,3-3.6,1.24-7.19,2.57-10.69,3.6s-6.78,2.16-9.76,3h-.41a40.7,40.7,0,0,1-5.14,8.32,42.06,42.06,0,0,1-6.16,6,27.83,27.83,0,0,1-6.38,3.39A7.44,7.44,0,0,1,500,104.75Zm20.45-17.27c-2.57.82-5.14,1.75-7.71,2.57a49.17,49.17,0,0,0-7,2.78,40,40,0,0,0-5.34,3A5,5,0,0,0,498,99c-.2,1.23,0,2.16.62,2.57l1.54,1a9.37,9.37,0,0,0,4.52-.62A19.93,19.93,0,0,0,510,99a26.58,26.58,0,0,0,5.34-4.93A19.14,19.14,0,0,0,520.42,87.48Z" transform="translate(0 -3.96)"/><path class="cls-1" d="M552.58,57.06a6.42,6.42,0,0,0-1.54.21c-.92.2-1-.21-1-.82s.21-.83.83-1c.2-.21.41-.21.82-.21a71.68,71.68,0,0,1,10.28-.61c3.8-.21,8.11-.21,12.33-.21,1-.82,2.36-2,4.21-3.39,1.95-1.23,3.6-2.78,5.55-4a57.33,57.33,0,0,1,5.55-3.39,13.74,13.74,0,0,1,4-1.54,1.24,1.24,0,0,1,1.23.61c.21.42.41.62.41,1a8.85,8.85,0,0,1-2.77,4.52c-1.75,1.75-3.8,3.81-6.37,6.17l13.25,1,1,.41c.62.41.82.82.62,1.23s-.62.41-1.54.41a1.56,1.56,0,0,1-1-.2c-2.57-.21-5.14-.41-7.5-.41-2.37-.21-4.94-.21-7.51-.21-3.8,3-7.5,6-11.51,8.74a92.33,92.33,0,0,1-12.12,7.5,12,12,0,0,0-2.16,3.6,11.43,11.43,0,0,0-1,3.59,2.81,2.81,0,0,0,2.78,2.37,33.57,33.57,0,0,0,6.37,0,71.08,71.08,0,0,0,8.53-2c3-.82,6-1.95,8.94-3,2.77-1,5.34-2,7.71-3A40.91,40.91,0,0,0,595.64,72c.83-.61,1.55-.61,2,0s.2,1-.62,1.75a30.34,30.34,0,0,1-7,3.8,86.58,86.58,0,0,1-11.1,4c-4,1.23-7.91,2.16-11.71,3-3.81.62-6.79.62-8.74,0a4.69,4.69,0,0,1-3-1.54,4.34,4.34,0,0,1-1-3,8.69,8.69,0,0,1,.21-2.16,8.18,8.18,0,0,1,1-2.57l.41-.41-3,1.23c-.21.21-.41.21-.82.21-.42-.21-.42-.21-.42-.41-.2-.41-.2-.82.42-1.23l6.16-3.6a47.65,47.65,0,0,1,5.14-6.37c2.16-2.37,4.93-5.14,8.12-8.12h-10C558.13,56.65,555.15,56.86,552.58,57.06ZM562.45,69c3.8-2.57,7.19-4.93,10.28-7s5.55-3.8,7.7-5.54h-5.55c-1,.82-2.36,2.15-4.21,4A99.94,99.94,0,0,0,562.45,69Zm29.19-24a43.34,43.34,0,0,0-6,3.18,73.38,73.38,0,0,0-8.52,6h6c1.95-1.75,3.59-3.39,5.55-5.14a20.65,20.65,0,0,0,4-4.52Z" transform="translate(0 -3.96)"/><path class="cls-1" d="M588.24,84.91a3.12,3.12,0,0,1-1.54-3.59,9.82,9.82,0,0,1,2.57-4.73,19.65,19.65,0,0,1,4.93-4,13.22,13.22,0,0,1,6-1.75,4.29,4.29,0,0,1,3,.83,4.82,4.82,0,0,1,1.54,2c.2.41.2.61-.21.82a.92.92,0,0,1-1,0,2.41,2.41,0,0,1-1-1c-.21-.41-.83-.61-2.16-.61A8.9,8.9,0,0,0,596.05,74a17.37,17.37,0,0,0-4,3,18.05,18.05,0,0,0-2.57,3.39c-.41,1-.41,1.75.2,2.16a6.75,6.75,0,0,0,3.81-.62,37.37,37.37,0,0,0,4.93-2.57A42.1,42.1,0,0,0,603.35,76c1.54-1.23,3-2.36,4.21-3.18.62-.62,1.24-.62,1.75,0s.62,1,.21,1.23a12.88,12.88,0,0,0-4,4.73,6.36,6.36,0,0,0-.82,2c-.21.72,0,.82.41.82a1.92,1.92,0,0,0,1.54,0,22,22,0,0,1,2.16-.62,9.37,9.37,0,0,1,2.16-.82,3.44,3.44,0,0,0,1.23-.61c1.95-.83,3.8-2,5.75-3a32.48,32.48,0,0,0,5.14-3.6,1,1,0,0,1,1.54.41c.42.62.21,1-.2,1.54-.82.62-2.37,1.54-4.22,2.78A60.88,60.88,0,0,1,614,81.21a27.44,27.44,0,0,1-6.37,2.57c-2.16.62-3.39.41-4.52-.41a1.91,1.91,0,0,1-.62-1.54c-.21-.62.2-1.75,1-3-1.24.82-2.57,1.75-4,2.77A46.71,46.71,0,0,1,595,84c-1.54.61-2.78,1-4,1.54A5.23,5.23,0,0,1,588.24,84.91Zm8-21.48c0-.61.21-1,.62-1,.41-.21.61.2.61.82,0,2,1.75,3.39,5.35,4.21a7.34,7.34,0,0,0,4.21,0,4.41,4.41,0,0,0,2.57-1.54,2,2,0,0,0,.21-2.16,4.44,4.44,0,0,0-3-2,6.24,6.24,0,0,0-4.73,0,6.06,6.06,0,0,0-3.39,2.77c0,.21-.21.21-.62,0s-.62-.41-.41-1c.62-1.75,1.95-2.57,4-3a11.7,11.7,0,0,1,6,.41c2.16.82,3.39,2,3.8,3a2.66,2.66,0,0,1-.21,2.77,5.9,5.9,0,0,1-3.39,2,12.34,12.34,0,0,1-5.55,0,7.7,7.7,0,0,1-4-2A6.06,6.06,0,0,1,596.26,63.43Z" transform="translate(0 -3.96)"/><path class="cls-1" d="M623.39,84.3a4.73,4.73,0,0,1-2.77-1.55,3.62,3.62,0,0,1-1.24-3,11.41,11.41,0,0,1,.41-2.15c.21-.83.62-1.55.83-2.57l.61-.62V74c-.61-.62-.41-1,.41-1.23l1.24-.62,1-1.75a136.15,136.15,0,0,1,9.36-10.69,165.85,165.85,0,0,1,12.33-11.51c4.21-3.59,8.53-7,12.74-10a45.72,45.72,0,0,1,10.9-6h1c1,0,1.75.42,1.75,1.24a10.33,10.33,0,0,1-2.77,4.73,71.91,71.91,0,0,1-6.79,6.57c-1.54,1.24-3.59,3-6.37,5.35s-6,4.72-9.35,7.5c-3.39,2.57-6.78,5.34-10.28,7.71a83.84,83.84,0,0,1-8.94,6.16l-3,1.75-.41.62c-.62,1-1.23,2-1.75,3a6.77,6.77,0,0,0-.61,2.77c0,1.23.82,2.16,2.36,2.57a14.36,14.36,0,0,0,6,0,49.27,49.27,0,0,0,7.71-1.54c2.77-.82,5.55-1.75,8.12-2.57a40.43,40.43,0,0,0,7-3,35.38,35.38,0,0,0,4.52-2.57,1,1,0,0,1,1.74,0c.52.62.42,1-.41,1.75a24.22,24.22,0,0,1-6.57,3.59,92.51,92.51,0,0,1-10,3.6,63.83,63.83,0,0,1-10.69,2.36C627.81,84.3,625.45,84.91,623.39,84.3Zm37.2-40.7a29,29,0,0,0,4-3.6,39.87,39.87,0,0,1,3-3l1-1,.62-1-1,.41a65.47,65.47,0,0,0-11.72,7c-4,3-7.71,6-11.51,9.14-3.59,3.19-7,6.37-10,9.35s-5.34,5.76-7.19,7.71l2.36-1.75c2-1.23,4.53-3.18,7.51-5.34,3-2.36,6-4.52,8.94-6.78s5.75-4.52,8.32-6.58S659.36,44.42,660.59,43.6Z" transform="translate(0 -3.96)"/><line class="cls-2" y1="123.19" x2="271.62" y2="123.19"/><line class="cls-2" x1="405.83" y1="123.19" x2="658.33" y2="123.19"/><g class="cls-3"><path class="cls-1" d="M426.76,149.38h2.45a6.56,6.56,0,0,1,4.44,1.41,5.85,5.85,0,0,1,2.05,4.61,5.71,5.71,0,0,1-2.11,4.61,6,6,0,0,1-4.39,1.39h-2.44Zm1.34,10.76h1.17a5.15,5.15,0,0,0,3.44-1.08,4.61,4.61,0,0,0,1.62-3.66c0-2.88-2-4.76-5.06-4.76H428.1Z" transform="translate(0 -3.96)"/><path class="cls-1" d="M446.44,150.64h-4.9v3.57h4.76v1.26h-4.76v4.67h4.9v1.26h-6.23v-12h6.23Z" transform="translate(0 -3.96)"/><path class="cls-1" d="M456.32,151.76a3.14,3.14,0,0,0-.71-.9,2.13,2.13,0,0,0-1.35-.42,1.85,1.85,0,0,0-2,1.86,1.28,1.28,0,0,0,.45,1,3.94,3.94,0,0,0,1.26.75l1.16.51a5.75,5.75,0,0,1,1.85,1.13,2.87,2.87,0,0,1,.87,2.18,3.85,3.85,0,0,1-6.42,2.72,4.32,4.32,0,0,1-1.11-2.12l1.29-.36a2.85,2.85,0,0,0,.72,1.53,2.31,2.31,0,0,0,1.73.66,2.28,2.28,0,0,0,2.42-2.37,1.79,1.79,0,0,0-.6-1.41,5.36,5.36,0,0,0-1.44-.83l-1.08-.5a5.41,5.41,0,0,1-1.6-1,2.53,2.53,0,0,1-.83-2,3.11,3.11,0,0,1,3.37-3.1,3.32,3.32,0,0,1,1.93.54,3.69,3.69,0,0,1,1.17,1.34Z" transform="translate(0 -3.96)"/><path class="cls-1" d="M463.67,149.38v12h-1.34v-12Z" transform="translate(0 -3.96)"/><path class="cls-1" d="M475,155.36h5v.29a6.59,6.59,0,0,1-1.16,3.8,5.37,5.37,0,0,1-4.46,2.17,6.22,6.22,0,1,1,0-12.44,6,6,0,0,1,3.68,1.19,7.77,7.77,0,0,1,1.39,1.43l-1,.9a6.57,6.57,0,0,0-1.13-1.25,4.47,4.47,0,0,0-2.92-1,5,5,0,0,0,0,9.91,4.2,4.2,0,0,0,3.68-2,3.83,3.83,0,0,0,.49-1.72H475Z" transform="translate(0 -3.96)"/><path class="cls-1" d="M484.53,161.4V148.88l9.37,9.82v-9.32h1.34v12.56l-9.37-9.82v9.28Z" transform="translate(0 -3.96)"/><path class="cls-1" d="M506.63,150.64h-4.91v3.57h4.76v1.26h-4.76v4.67h4.91v1.26h-6.24v-12h6.24Z" transform="translate(0 -3.96)"/><path class="cls-1" d="M513.06,149.38a5.3,5.3,0,0,1,2.92.67,3.34,3.34,0,0,1-1.71,6l3.82,5.37h-1.63l-3.65-5.26h-.35v5.26h-1.33v-12Zm-.6,5.57h.85c1.66,0,2.65-.79,2.65-2.2a1.85,1.85,0,0,0-1-1.76,3.39,3.39,0,0,0-1.73-.35h-.81Z" transform="translate(0 -3.96)"/><path class="cls-1" d="M536.19,147.72l1,.54L528,165l-1.05-.51Z" transform="translate(0 -3.96)"/><path class="cls-1" d="M556.65,152a6,6,0,0,0-1.57-1.12,5.09,5.09,0,0,0-2.07-.47,5,5,0,0,0,0,9.91,5,5,0,0,0,2.24-.55,6,6,0,0,0,1.39-1v1.65a6.28,6.28,0,0,1-3.63,1.18,6.22,6.22,0,1,1,.08-12.44,5.68,5.68,0,0,1,3.55,1.19Z" transform="translate(0 -3.96)"/><path class="cls-1" d="M563.08,149.38a5.3,5.3,0,0,1,2.92.67,3.34,3.34,0,0,1-1.71,6l3.82,5.37h-1.63l-3.65-5.26h-.35v5.26h-1.33v-12Zm-.6,5.57h.85c1.66,0,2.65-.79,2.65-2.2a1.86,1.86,0,0,0-1-1.76,3.43,3.43,0,0,0-1.73-.35h-.82Z" transform="translate(0 -3.96)"/><path class="cls-1" d="M578.49,150.64h-4.91v3.57h4.76v1.26h-4.76v4.67h4.91v1.26h-6.24v-12h6.24Z" transform="translate(0 -3.96)"/><path class="cls-1" d="M589.62,158H584.5l-1.44,3.39h-1.48l5.54-12.59,5.38,12.59H591Zm-.52-1.26-2-4.81L585,156.75Z" transform="translate(0 -3.96)"/><path class="cls-1" d="M598.4,150.64V161.4h-1.34V150.64h-2.92v-1.26h7.18v1.26Z" transform="translate(0 -3.96)"/><path class="cls-1" d="M603.89,155.4a6.26,6.26,0,1,1,6.26,6.22A6.14,6.14,0,0,1,603.89,155.4Zm1.37,0a4.89,4.89,0,1,0,4.89-5A4.9,4.9,0,0,0,605.26,155.4Z" transform="translate(0 -3.96)"/><path class="cls-1" d="M622.83,149.38a5.3,5.3,0,0,1,2.92.67,3.34,3.34,0,0,1-1.71,6l3.82,5.37h-1.62l-3.66-5.26h-.34v5.26H620.9v-12Zm-.59,5.57h.84c1.66,0,2.65-.79,2.65-2.2a1.86,1.86,0,0,0-1-1.76,3.41,3.41,0,0,0-1.73-.35h-.81Z" transform="translate(0 -3.96)"/></g></svg>