<svg id="Layer_1" data-name="Layer 1" xmlns="http://www.w3.org/2000/svg" viewBox="0 0 106.75 38.66"><defs><style>.cls-1{fill:#62c7c7;}.cls-2{fill:#429492;}</style></defs><title>maria-logo</title><path class="cls-1" d="M23.28,14.37c.46-.44.91-.86,1.35-1.23l1.19-1c.31-.31.55-.55.73-.71a5,5,0,0,0,.38-.36L27,11V11l-.08-.07a.22.22,0,0,0-.15,0c-.13,0-.27.08-.42.13a3,3,0,0,0-.55.29,14,14,0,0,0-1.46.89L22.58,13.4l-2.29,1.84-1.78,1.45-.14.09-.09.09a4.66,4.66,0,0,1-.46.37.19.19,0,0,1-.23,0c-.07-.11-.05-.18,0-.23l.12-.09.14-.12.21-.16.09-.14,1.29-1.11c.7-.65,1.36-1.28,2-1.91s1.21-1.2,1.7-1.74c.33-.37.62-.72.88-1a5.2,5.2,0,0,0,.61-.87,1.88,1.88,0,0,0,.26-.58q0-.16,0-.21c-.5-.35-1.64,0-3.43,1.16-.6.42-1.25.89-1.95,1.43s-1.42,1.11-2.16,1.72l-.42.37-.14.13c-.37.47-.77.93-1.19,1.4a18.34,18.34,0,0,1-1.31,1.33c-.74.73-1.49,1.41-2.24,2.05S10.6,19.83,10,20.3q-.39.3-.81.57a9.11,9.11,0,0,1-.8.49c-.25.14-.47.25-.67.34a.74.74,0,0,1-.45.08.13.13,0,0,1,0-.1c-.08,0-.11-.07-.1-.11a.24.24,0,0,1,.14-.12,3.69,3.69,0,0,0,.94-.63c.49-.4,1.14-1,2-1.68l2.59-2.24,2.91-2.53,1.07-.88.27-.41a8.86,8.86,0,0,0,1.3-2.2,2,2,0,0,0,0-1.69l-.23-.28L18,8.78a2.45,2.45,0,0,0-1-.34,6.87,6.87,0,0,0-1.44,0,11.22,11.22,0,0,0-1.69.28A13.21,13.21,0,0,0,12,9.24a16.69,16.69,0,0,0-1.81.77,10,10,0,0,0-1.47.91,4,4,0,0,0-1,1,1.39,1.39,0,0,0-.29.92c0,.17.13.29.35.37a2.15,2.15,0,0,0,.85.08,8.37,8.37,0,0,0,1.24-.19,15.18,15.18,0,0,0,1.49-.44A15.66,15.66,0,0,0,12.91,12a8.82,8.82,0,0,0,1.21-.7,3.63,3.63,0,0,0,.78-.67.71.71,0,0,0,.23-.58.37.37,0,0,1,0-.11.1.1,0,0,1,.1-.07.22.22,0,0,1,.19.14.9.9,0,0,1-.27.76,4.51,4.51,0,0,1-.9.78,13.58,13.58,0,0,1-1.28.73,14.66,14.66,0,0,1-1.44.6q-.72.26-1.47.45a6.82,6.82,0,0,1-1.39.23,2.84,2.84,0,0,1-1.06-.12.65.65,0,0,1-.47-.61,1.67,1.67,0,0,1,.33-1.1,4.93,4.93,0,0,1,1.05-1,11.77,11.77,0,0,1,1.55-.94A16.38,16.38,0,0,1,11.94,9a17.39,17.39,0,0,1,1.9-.58,11.77,11.77,0,0,1,1.85-.29,5.58,5.58,0,0,1,1.57.1,2,2,0,0,1,1.07.54h0a1.64,1.64,0,0,1,.38,1.51,6.61,6.61,0,0,1-.79,2l-.33.46,1-.74L20,10.9c.45-.34.89-.64,1.3-.92s.77-.5,1.15-.71a6.72,6.72,0,0,1,1.05-.48,2.91,2.91,0,0,1,.89-.19,1,1,0,0,1,.66.18.45.45,0,0,1,.16.5,2.44,2.44,0,0,1-.32.76,8.32,8.32,0,0,1-.65.91c-.26.32-.53.65-.81,1s-.37.38-.55.58-.37.41-.56.62l-.6.56.65-.51c.6-.45,1.18-.86,1.73-1.23a16,16,0,0,1,1.51-.9,3.08,3.08,0,0,1,.59-.31,2.79,2.79,0,0,1,.47-.15.8.8,0,0,1,.41.09.41.41,0,0,1,.15.37v.1h-.05a1.46,1.46,0,0,1-.36.43c-.21.21-.48.45-.81.74l-1.15,1c-.44.39-.92.81-1.43,1.28l-.89.9c-.38.38-.77.81-1.17,1.27s-.77.92-1.11,1.38a6.57,6.57,0,0,0-.74,1.21.89.89,0,0,0-.06.8c.12.18.44.2,1,.08a5.35,5.35,0,0,0,.8-.22l1.18-.4,1.36-.51,1.33-.55,1.13-.48A5.91,5.91,0,0,0,27,17.7c.12,0,.21,0,.26,0s0,.15-.13.24a7.66,7.66,0,0,1-.82.41l-1.21.51-1.4.55c-.49.19-.95.37-1.39.52s-.83.29-1.18.4l-.75.2a1.34,1.34,0,0,1-1.1-.11.75.75,0,0,1-.24-.67,3.1,3.1,0,0,1,.6-1.34,16.73,16.73,0,0,1,1.21-1.59c.46-.53.91-1,1.36-1.48S23,14.59,23.28,14.37ZM9.77,20.06c.64-.49,1.34-1,2.09-1.67s1.48-1.3,2.21-2l1.53-1.52L14.39,15.9l-4.07,3.47c-.28.23-.53.46-.77.68s-.48.43-.71.62l-.18.14.18-.1Z"/><path class="cls-1" d="M26.19,19.37a.44.44,0,0,1-.21-.5,1.45,1.45,0,0,1,.35-.64,3,3,0,0,1,.69-.56,1.68,1.68,0,0,1,.84-.24,1.18,1.18,0,0,1,.5.11.6.6,0,0,1,.28.26.08.08,0,0,1,0,.12.12.12,0,0,1-.15,0l-.22-.15a.6.6,0,0,0-.38-.09,1.23,1.23,0,0,0-.6.19,2.51,2.51,0,0,0-.57.43,1.7,1.7,0,0,0-.35.46c-.07.15-.06.25,0,.31a.93.93,0,0,0,.55-.1,6.28,6.28,0,0,0,.73-.37c.26-.15.5-.31.74-.48s.44-.31.61-.44.26-.13.32,0a.16.16,0,0,1,0,.23,1,1,0,0,0-.4.52c-.07.21-.05.34.05.38a.77.77,0,0,0,.54-.08c.24-.1.5-.22.76-.36s.51-.27.74-.41l.44-.28a.15.15,0,0,1,.22.07q.08.14,0,.21c-.11.06-.28.16-.51.31s-.49.29-.76.43a5.59,5.59,0,0,1-.81.34,1,1,0,0,1-.65.07.4.4,0,0,1-.32-.3.57.57,0,0,1,.06-.44c-.17.13-.37.26-.6.41a6.17,6.17,0,0,1-.72.38,3.92,3.92,0,0,1-.67.24A.53.53,0,0,1,26.19,19.37Z"/><path class="cls-1" d="M32.48,19.28a.61.61,0,0,1,0-.66,3.31,3.31,0,0,1,.53-.73v-.05a1.18,1.18,0,0,1-.17-.34c0-.1-.06-.21-.11-.35-.41.28-.75.49-1,.65l-.58.37c-.12,0-.19,0-.19-.05A.15.15,0,0,1,31,18a.61.61,0,0,1,.07-.1,2.2,2.2,0,0,1,.25-.17l.34-.21.45-.3.63-.43,0-.14a1.5,1.5,0,0,1,.35-.7,2.83,2.83,0,0,1,.62-.58,3.26,3.26,0,0,1,.71-.38,1.16,1.16,0,0,1,.57-.12c.1,0,.14.1.11.24a.94.94,0,0,1-.35.48l-.55.45-.63.47-.55.42a1.56,1.56,0,0,0,.37.88q.09.18,0,.18a5.2,5.2,0,0,0-.45.47.84.84,0,0,0-.24.55c0,.11.1.16.26.16a2.25,2.25,0,0,0,.61-.1c.25-.07.53-.16.83-.27s.59-.22.89-.36l.82-.37a5.62,5.62,0,0,0,.61-.31q.12-.08.15,0l.08.08a.11.11,0,0,1,0,.11c0,.05,0,.07-.07.07a9.84,9.84,0,0,1-1,.51,13.93,13.93,0,0,1-1.36.59,6.33,6.33,0,0,1-1.31.36C32.9,19.5,32.62,19.45,32.48,19.28Zm2.34-4.12a2.31,2.31,0,0,0-1,.49,2.18,2.18,0,0,0-.71.81c.16-.14.3-.26.44-.36l.39-.3.4-.3Z"/><path class="cls-1" d="M36.42,19.05a.43.43,0,0,1-.05-.44,1.66,1.66,0,0,1,.23-.44,1.27,1.27,0,0,1-.32.17.7.7,0,0,0-.23.11.14.14,0,0,1-.14-.24,3,3,0,0,0,.43-.2l.26-.18.26-.17c.09-.06.22-.14.39-.23a.14.14,0,0,1,.22.07c.05.09,0,.16,0,.2a1.81,1.81,0,0,0-.37.35l-.23.35c-.12.2-.16.33-.11.39a.29.29,0,0,0,.25.09,1.65,1.65,0,0,0,.42-.05l.37-.11a7.44,7.44,0,0,0,1-.39l1.11-.53c0-.05.08-.07.11-.06l.12.06A.17.17,0,0,1,40,18c-.16.09-.41.23-.76.4a9,9,0,0,1-1.09.48,6.58,6.58,0,0,1-1.09.29C36.75,19.25,36.52,19.2,36.42,19.05Zm1.11-2.36a.13.13,0,0,1,0-.12.08.08,0,0,1,.08-.07c.1-.09.19-.19.29-.29a1.69,1.69,0,0,0,.27-.36c0-.1.11-.12.18,0s.16.12.1.18a1.94,1.94,0,0,1-.65.74C37.65,16.8,37.57,16.78,37.53,16.69Z"/><path class="cls-1" d="M60.86,16.22a.1.1,0,0,1,0-.1s0-.07.07-.07l.26-.25a1.57,1.57,0,0,0,.24-.32c0-.09.09-.11.16,0s.14.11.08.16a1.74,1.74,0,0,1-.57.66C61,16.31,60.9,16.3,60.86,16.22Z"/><path class="cls-1" d="M61.79,16.33a.11.11,0,0,1,0-.1.07.07,0,0,1,.07-.06c.09-.08.17-.17.26-.26a1.5,1.5,0,0,0,.24-.31c0-.1.09-.11.16,0s.14.11.08.17a1.78,1.78,0,0,1-.57.65C61.9,16.43,61.83,16.42,61.79,16.33Z"/><path class="cls-1" d="M39.24,19.37a.42.42,0,0,1-.21-.5,1.36,1.36,0,0,1,.35-.64,2.6,2.6,0,0,1,.69-.56,1.67,1.67,0,0,1,.83-.24.74.74,0,0,1,.43.11.67.67,0,0,1,.22.26.08.08,0,0,1,0,.12c-.06,0-.11,0-.15,0a.35.35,0,0,1-.15-.15c0-.06-.13-.09-.32-.09a1.3,1.3,0,0,0-.6.19,2.68,2.68,0,0,0-.56.43,1.52,1.52,0,0,0-.35.46c-.07.15-.06.25,0,.31A.89.89,0,0,0,40,19a6.74,6.74,0,0,0,.68-.37q.36-.23.69-.48c.23-.16.42-.31.59-.44s.18-.07.25,0,.08.14,0,.19a.39.39,0,0,0-.14.27,1,1,0,0,0,0,.37.7.7,0,0,0,.22.35.73.73,0,0,0,.44.21,1.57,1.57,0,0,0,.63-.05,4.76,4.76,0,0,0,.71-.28,2.74,2.74,0,0,0,.62-.43,1.58,1.58,0,0,0,.4-.53c0-.1.09-.11.18,0s.09.18,0,.32a3.42,3.42,0,0,1-.39.45,3.68,3.68,0,0,1-.58.44,3.35,3.35,0,0,1-.72.32,2,2,0,0,1-.81.08,1.05,1.05,0,0,1-.69-.35,1.35,1.35,0,0,1-.33-.85,4.21,4.21,0,0,1-.62.5,7.06,7.06,0,0,1-.75.42,3.84,3.84,0,0,1-.71.28A.59.59,0,0,1,39.24,19.37Z"/><path class="cls-1" d="M52.47,10.35c.6-.16,1.29-.32,2.06-.49s1.56-.33,2.36-.49,1.59-.32,2.36-.47l2.08-.36.21-.18c.17-.12.29-.16.37-.1s.08.11,0,.19l.28,0a30.63,30.63,0,0,1,3.07-.31,7.84,7.84,0,0,1,2.16.17l.09.08s0,.06,0,.1-.14.14-.23.09a9.43,9.43,0,0,0-2-.12,21,21,0,0,0-3,.26l-.81.12c-.31.28-.64.6-1,1s-.74.76-1.14,1.19l-3.61,3.84q1.57-.22,3-.3a15,15,0,0,1,2.27,0c.14,0,.21.08.19.15s-.12.11-.3.11a15.58,15.58,0,0,0-2.65,0,27.29,27.29,0,0,0-2.81.35c-.83.88-1.63,1.75-2.39,2.59s-1.49,1.67-2.17,2.46-1.15,1.32-1.64,1.92-.92,1.13-1.27,1.59c-.22.3-.39.54-.51.73a4,4,0,0,0-.28.48,1.8,1.8,0,0,0-.12.29c0,.07,0,.11,0,.12s0,.14-.09.19-.12,0-.19-.09,0-.43.2-.78a11.59,11.59,0,0,1,.78-1.12c.35-.49.77-1,1.27-1.63s1-1.24,1.64-1.93,1.33-1.49,2.05-2.28,1.47-1.61,2.25-2.44c-.78.14-1.51.3-2.17.48a15.35,15.35,0,0,0-1.71.58.44.44,0,0,1-.28,0c-.08-.08-.09-.13,0-.16a.3.3,0,0,0,.13-.12,13,13,0,0,1,2-.64c.76-.19,1.54-.34,2.36-.47l1.94-2.08c.65-.69,1.3-1.37,2-2,.35-.38.68-.71,1-1s.59-.6.87-.86l-2,.37-2.22.44c-.75.16-1.47.31-2.17.48l-1.89.45c-.22.07-.34.06-.37-.05S52.29,10.39,52.47,10.35Z"/><path class="cls-1" d="M58.6,19.37a.44.44,0,0,1-.21-.5,1.45,1.45,0,0,1,.35-.64,3,3,0,0,1,.69-.56,1.68,1.68,0,0,1,.84-.24,1.1,1.1,0,0,1,.49.11.58.58,0,0,1,.29.26.08.08,0,0,1,0,.12c-.06,0-.1,0-.15,0l-.22-.15a.6.6,0,0,0-.38-.09,1.23,1.23,0,0,0-.6.19,2.51,2.51,0,0,0-.57.43,1.7,1.7,0,0,0-.35.46c-.07.15-.06.25,0,.31a.93.93,0,0,0,.55-.1,6.28,6.28,0,0,0,.73-.37c.26-.15.5-.31.74-.48s.44-.31.61-.44.26-.13.32,0a.16.16,0,0,1,0,.23,1,1,0,0,0-.4.52c-.07.21,0,.34.05.38a.77.77,0,0,0,.54-.08c.24-.1.5-.22.76-.36s.51-.27.74-.41l.44-.28a.15.15,0,0,1,.22.07q.08.14,0,.21c-.11.06-.28.16-.51.31s-.49.29-.76.43a5.59,5.59,0,0,1-.81.34,1,1,0,0,1-.65.07.4.4,0,0,1-.32-.3.57.57,0,0,1,.06-.44c-.17.13-.37.26-.6.41a6.17,6.17,0,0,1-.72.38,3.92,3.92,0,0,1-.67.24A.53.53,0,0,1,58.6,19.37Z"/><path class="cls-1" d="M57,26.5a1.35,1.35,0,0,1,.46-.83,14.66,14.66,0,0,1,1.16-1c.46-.37,1-.77,1.63-1.2s1.29-.86,2-1.3l.6-.37,0-.1a23.53,23.53,0,0,0,1.5-1.94l1.23-1.8a6.26,6.26,0,0,1-1.86,1.43c-.47.19-.78.12-.92-.18a.58.58,0,0,1,0-.64,2.44,2.44,0,0,1,.61-.65,6.29,6.29,0,0,1,.92-.58q.52-.26,1-.45c.12,0,.2,0,.23.09a.26.26,0,0,1-.14.24,7,7,0,0,0-1.11.48,4.58,4.58,0,0,0-.83.56,1.9,1.9,0,0,0-.46.52c-.08.16-.07.29,0,.38s.25.09.46,0a4.7,4.7,0,0,0,.73-.44,7.83,7.83,0,0,0,.81-.66l.73-.7c.05-.07.12-.08.21,0a.15.15,0,0,1,.07.21L65.23,19a21.82,21.82,0,0,1-1.63,2.28l.69-.46,1.55-.94L67.3,19l1.26-.77q.57-.36,1-.66c.09-.1.17-.08.23,0s.06,0,0,.07a.27.27,0,0,1-.09.12l-1,.65-1.26.79L66,20.15c-.51.31-1,.64-1.55,1L63,22l-.74.78-.74.84c-.54.55-1.05,1.06-1.55,1.52a9.8,9.8,0,0,1-1.36,1.11l-.57.37a2,2,0,0,1-.45.24.73.73,0,0,1-.39,0c-.13,0-.21-.14-.26-.31Zm.56,0a2.34,2.34,0,0,0,.92-.51c.4-.31.85-.68,1.33-1.12s1-.93,1.54-1.47l.38-.43a5.14,5.14,0,0,1,.41-.4v-.05l-.74.51c-.51.33-1,.64-1.41.94s-.83.59-1.18.87a8.61,8.61,0,0,0-1,.9,2.41,2.41,0,0,0-.46.62v.1a.12.12,0,0,0,0,.08S57.41,26.59,57.54,26.54Z"/><path class="cls-1" d="M68.27,17.89a1.47,1.47,0,0,1,.46-.6,1.74,1.74,0,0,1,.65-.33,1.15,1.15,0,0,1,.49,0c.15,0,.24.12.25.26a.49.49,0,0,1-.17.41,2.15,2.15,0,0,1-.49.36,5.68,5.68,0,0,1-.56.27,2.48,2.48,0,0,1-.37.14.83.83,0,0,0,.48.49,1.52,1.52,0,0,0,.86.09,6.18,6.18,0,0,0,1.73-.5,9.2,9.2,0,0,0,1.48-.8c.1-.07.17-.07.23,0s0,.16,0,.24a8.42,8.42,0,0,1-.78.47,8.3,8.3,0,0,1-.95.44,7.39,7.39,0,0,1-1,.32,4.06,4.06,0,0,1-1,.13,1.64,1.64,0,0,1-.6-.1,1.54,1.54,0,0,1-.48-.29.89.89,0,0,1-.25-.44A1,1,0,0,1,68.27,17.89Zm1.53-.65a.9.9,0,0,0-.81.25,1.56,1.56,0,0,0-.51.7l.3-.15.44-.23a2.55,2.55,0,0,0,.4-.28A.41.41,0,0,0,69.8,17.24Z"/><path class="cls-1" d="M74.26,19.28a.61.61,0,0,1,0-.66,3.31,3.31,0,0,1,.53-.73v-.05a1.64,1.64,0,0,1-.18-.34,2.45,2.45,0,0,0-.1-.35l-1,.65-.58.37c-.13,0-.19,0-.19-.05a.13.13,0,0,1,0-.13.3.3,0,0,1,.07-.1,2.2,2.2,0,0,1,.25-.17l.34-.21.45-.3.62-.43.05-.14a1.5,1.5,0,0,1,.35-.7,2.83,2.83,0,0,1,.62-.58,3.26,3.26,0,0,1,.71-.38,1.14,1.14,0,0,1,.56-.12q.16,0,.12.24a.94.94,0,0,1-.35.48L76,16l-.63.47-.55.42a1.56,1.56,0,0,0,.37.88q.09.18,0,.18a5.2,5.2,0,0,0-.45.47.86.86,0,0,0-.25.55c0,.11.11.16.27.16a2.25,2.25,0,0,0,.61-.1c.25-.07.52-.16.82-.27s.6-.22.9-.36l.82-.37a5.62,5.62,0,0,0,.61-.31q.12-.08.15,0l.08.08a.09.09,0,0,1,0,.11c0,.05,0,.07-.07.07a9.42,9.42,0,0,1-.94.51c-.44.22-.89.41-1.36.59a6.24,6.24,0,0,1-1.32.36C74.68,19.5,74.4,19.45,74.26,19.28Zm2.34-4.12a2.31,2.31,0,0,0-1,.49,2.09,2.09,0,0,0-.71.81,4.37,4.37,0,0,1,.44-.36l.39-.3.4-.3Z"/><path class="cls-1" d="M76.34,22.15a.94.94,0,0,1-.43-.29.59.59,0,0,1-.12-.55,1,1,0,0,1,.38-.61,3.83,3.83,0,0,1,.8-.47,7.89,7.89,0,0,1,1-.38l1-.34.37-.09c.09-.22.17-.41.22-.58a4.44,4.44,0,0,0,.15-.52l.15-.57c.06-.2.13-.45.22-.74l-.09,0c-.23.18-.48.37-.75.56a10.71,10.71,0,0,1-1,.64c-.11.06-.18,0-.23-.05a.09.09,0,0,1,0-.11.24.24,0,0,1,.07-.12c.58-.35,1-.65,1.37-.88l.85-.6a.21.21,0,0,1,.1-.11.37.37,0,0,1,.15-.05.08.08,0,0,1,.09.07c0,.05,0,.12-.06.23-.19.56-.33,1-.42,1.42a6.31,6.31,0,0,1-.42,1.22h.14l1.19-.38c.43-.13.86-.28,1.31-.45l1-.41a4.85,4.85,0,0,0,.94-.47s0-.05.09-.06a.13.13,0,0,1,.14.06s0,.07,0,.13-.07.1-.1.1a7.13,7.13,0,0,1-1,.51l-1,.41c-.51.19-1,.35-1.51.5l-1.36.43h0a4.77,4.77,0,0,1-1.58,2,3.29,3.29,0,0,1-.89.46A1.39,1.39,0,0,1,76.34,22.15Zm2.87-2.41-1.06.36a8.19,8.19,0,0,0-1,.38,4.14,4.14,0,0,0-.74.43.73.73,0,0,0-.33.45c0,.19,0,.31.11.37l.22.14a1.27,1.27,0,0,0,.61-.08,2.9,2.9,0,0,0,.74-.41,4,4,0,0,0,.75-.69A5.19,5.19,0,0,0,79.21,19.74Z"/><path class="cls-1" d="M83.7,15.48l-.21,0c-.1,0-.16,0-.16-.12a.16.16,0,0,1,.12-.16.2.2,0,0,1,.11,0c.4-.05.88-.08,1.43-.11s1.12,0,1.72,0c.14-.13.33-.28.59-.48s.52-.38.79-.56a6.8,6.8,0,0,1,.77-.48,1.36,1.36,0,0,1,.58-.19.18.18,0,0,1,.17.08.24.24,0,0,1,.06.15,1.34,1.34,0,0,1-.39.62c-.23.25-.54.53-.91.86l1.86.14.13,0a.18.18,0,0,1,.1.19s-.09.07-.21.07a.38.38,0,0,1-.16,0l-1-.07-1,0c-.52.43-1,.85-1.59,1.24a11.74,11.74,0,0,1-1.69,1,1.78,1.78,0,0,0-.3.5,1.32,1.32,0,0,0-.14.49c0,.19.14.3.38.34a3.41,3.41,0,0,0,.9,0,8,8,0,0,0,1.2-.27c.43-.13.84-.26,1.24-.4a9.5,9.5,0,0,0,1.07-.43,5.12,5.12,0,0,0,.65-.36q.18-.12.27,0c.07.08,0,.15-.09.23a4.27,4.27,0,0,1-1,.55c-.48.2-1,.4-1.55.57a11.79,11.79,0,0,1-1.63.41,2.82,2.82,0,0,1-1.24,0,.76.76,0,0,1-.41-.2.54.54,0,0,1-.15-.4,1,1,0,0,1,0-.3,1,1,0,0,1,.15-.35l0-.05-.41.19a.1.1,0,0,1-.12,0,.08.08,0,0,1-.07-.07.15.15,0,0,1,0-.18l.88-.51a9.07,9.07,0,0,1,.73-.89c.3-.33.67-.72,1.12-1.15H84.93C84.48,15.41,84.07,15.44,83.7,15.48Zm1.37,1.67,1.43-1c.42-.29.78-.55,1.09-.78H86.8l-.6.56C85.94,16.19,85.56,16.59,85.07,17.15Zm4.09-3.38a7.4,7.4,0,0,0-.84.45,10.16,10.16,0,0,0-1.19.85H88c.26-.23.52-.47.77-.72a4.75,4.75,0,0,0,.57-.62Z"/><path class="cls-1" d="M88.7,19.37a.42.42,0,0,1-.21-.5,1.36,1.36,0,0,1,.35-.64,2.6,2.6,0,0,1,.69-.56,1.67,1.67,0,0,1,.83-.24.74.74,0,0,1,.43.11.67.67,0,0,1,.22.26.08.08,0,0,1,0,.12c-.06,0-.11,0-.15,0a.35.35,0,0,1-.15-.15c0-.06-.13-.09-.32-.09a1.3,1.3,0,0,0-.6.19,2.68,2.68,0,0,0-.56.43,1.52,1.52,0,0,0-.35.46c-.07.15-.06.25,0,.31a.89.89,0,0,0,.54-.1,6.74,6.74,0,0,0,.68-.37q.36-.23.69-.48c.23-.16.42-.31.59-.44a.16.16,0,0,1,.24,0c.07.08.09.14,0,.19a2.16,2.16,0,0,0-.56.65l-.11.25c0,.08,0,.12.07.12a.28.28,0,0,0,.21,0,2.52,2.52,0,0,0,.29-.1l.28-.13a.45.45,0,0,0,.19-.11,6.09,6.09,0,0,0,.8-.42c.25-.17.5-.33.73-.5s.16,0,.22.07,0,.16,0,.21l-.59.38a9,9,0,0,1-.87.51,5.1,5.1,0,0,1-.89.37.61.61,0,0,1-.61-.06.41.41,0,0,1-.1-.22c0-.1,0-.24.15-.43-.17.13-.36.25-.56.38a4.09,4.09,0,0,1-.61.34,3.57,3.57,0,0,1-.57.2A.53.53,0,0,1,88.7,19.37Zm1.11-3c0-.09,0-.14.09-.16s.09,0,.09.12c0,.26.25.46.74.6a1.46,1.46,0,0,0,.59,0,.68.68,0,0,0,.37-.21.27.27,0,0,0,0-.3.74.74,0,0,0-.43-.28,1,1,0,0,0-.65,0,.77.77,0,0,0-.46.38s0,0-.09,0-.08-.07,0-.15a.66.66,0,0,1,.57-.41,1.88,1.88,0,0,1,.82,0,1,1,0,0,1,.54.41.35.35,0,0,1,0,.39.88.88,0,0,1-.48.27,1.66,1.66,0,0,1-.77,0,1.46,1.46,0,0,1-.58-.26A.68.68,0,0,1,89.81,16.36Z"/><path class="cls-1" d="M93.6,19.28a.88.88,0,0,1-.38-.2.51.51,0,0,1-.17-.4.8.8,0,0,1,.06-.3c0-.11.08-.23.12-.35l.1-.09v-.05c-.08-.08-.07-.14,0-.19l.19-.09.13-.23A16.4,16.4,0,0,1,95,15.89c.55-.56,1.12-1.1,1.73-1.62a19.71,19.71,0,0,1,1.79-1.39,6.43,6.43,0,0,1,1.51-.82h.14c.16,0,.23.06.23.19a1.49,1.49,0,0,1-.39.64,10.68,10.68,0,0,1-1,.93l-.9.74-1.31,1c-.47.37-.95.73-1.43,1.09l-1.26.88-.42.23,0,.09a4.23,4.23,0,0,0-.23.41.88.88,0,0,0-.09.38.34.34,0,0,0,.32.34,2.76,2.76,0,0,0,.83,0,8.64,8.64,0,0,0,1.08-.22c.4-.11.78-.23,1.15-.36a9.59,9.59,0,0,0,1-.41,3.54,3.54,0,0,0,.63-.35c.09-.07.17-.07.23,0s.05.16,0,.24a4.72,4.72,0,0,1-.91.52,14,14,0,0,1-1.39.52,10.11,10.11,0,0,1-1.48.33A2.76,2.76,0,0,1,93.6,19.28Zm5.23-5.69c.23-.19.42-.35.57-.5s.28-.29.4-.43l.14-.14.09-.14-.13,0a9.92,9.92,0,0,0-1.65,1q-.82.62-1.59,1.29c-.51.45-1,.88-1.39,1.32s-.76.79-1,1.08l.32-.23q.42-.27,1.05-.75l1.26-1c.42-.32.81-.63,1.16-.92Z"/><rect class="cls-2" x="6.34" y="25.13" width="38.03" height="0.3"/><rect class="cls-2" x="63.16" y="25.13" width="35.35" height="0.3"/><path class="cls-1" d="M66.09,28.4h.34a.91.91,0,0,1,.62.2.85.85,0,0,1,0,1.29.83.83,0,0,1-.61.19h-.34Zm.18,1.51h.17a.75.75,0,0,0,.48-.15.66.66,0,0,0,.23-.52.65.65,0,0,0-.71-.66h-.17Z"/><path class="cls-1" d="M69.06,28.58h-.69v.5H69v.17h-.67v.66h.69v.17h-.87V28.4h.87Z"/><path class="cls-1" d="M70.66,28.73a.38.38,0,0,0-.1-.12.26.26,0,0,0-.19-.06.26.26,0,0,0-.28.26.2.2,0,0,0,.06.15.64.64,0,0,0,.18.1l.16.07a1,1,0,0,1,.26.16.41.41,0,0,1,.12.31.5.5,0,0,1-.53.51A.53.53,0,0,1,70,30a.61.61,0,0,1-.15-.3l.18-.05a.35.35,0,0,0,.1.21.3.3,0,0,0,.24.1.32.32,0,0,0,.34-.34.24.24,0,0,0-.08-.19.68.68,0,0,0-.21-.12l-.15-.07a.62.62,0,0,1-.22-.14.36.36,0,0,1-.12-.27.44.44,0,0,1,.47-.44.41.41,0,0,1,.27.08.52.52,0,0,1,.17.19Z"/><path class="cls-1" d="M71.91,28.4v1.68h-.19V28.4Z"/><path class="cls-1" d="M73.71,29.24h.7v0a.88.88,0,0,1-.16.53.75.75,0,0,1-.62.3.87.87,0,1,1,0-1.74.85.85,0,0,1,.52.17,1.19,1.19,0,0,1,.19.2l-.14.13a.93.93,0,0,0-.16-.18.66.66,0,0,0-.41-.14.7.7,0,0,0,0,1.39.59.59,0,0,0,.51-.28.52.52,0,0,0,.07-.24h-.5Z"/><path class="cls-1" d="M75.26,30.08V28.33l1.31,1.38V28.4h.19v1.76l-1.31-1.37v1.29Z"/><path class="cls-1" d="M78.57,28.58h-.69v.5h.67v.17h-.67v.66h.69v.17H77.7V28.4h.87Z"/><path class="cls-1" d="M79.69,28.4a.73.73,0,0,1,.41.1.46.46,0,0,1-.24.83l.53.75h-.23l-.51-.73H79.6v.73h-.18V28.4Zm-.09.78h.12c.24,0,.37-.11.37-.31a.24.24,0,0,0-.13-.24.42.42,0,0,0-.24-.05H79.6Z"/><path class="cls-1" d="M83.36,28.17l.15.08-1.3,2.33-.15-.07Z"/><path class="cls-1" d="M86.66,28.77a1.21,1.21,0,0,0-.22-.15.73.73,0,0,0-.29-.07.7.7,0,0,0,0,1.39.75.75,0,0,0,.31-.08.8.8,0,0,0,.2-.14V30a.9.9,0,0,1-.51.16.84.84,0,0,1-.87-.86.86.86,0,0,1,.88-.88.83.83,0,0,1,.5.17Z"/><path class="cls-1" d="M87.78,28.4a.68.68,0,0,1,.4.1.42.42,0,0,1,.19.37.44.44,0,0,1-.43.46l.54.75h-.23l-.51-.73h0v.73h-.18V28.4Zm-.09.78h.12c.23,0,.37-.11.37-.31a.26.26,0,0,0-.13-.24.42.42,0,0,0-.24-.05h-.12Z"/><path class="cls-1" d="M90.15,28.58h-.69v.5h.67v.17h-.67v.66h.69v.17h-.87V28.4h.87Z"/><path class="cls-1" d="M91.93,29.61h-.72l-.2.47H90.8l.77-1.76.76,1.76h-.21Zm-.08-.18-.28-.67-.29.67Z"/><path class="cls-1" d="M93.37,28.58v1.5h-.19v-1.5h-.4V28.4h1v.18Z"/><path class="cls-1" d="M94.36,29.24a.88.88,0,1,1,.87.87A.86.86,0,0,1,94.36,29.24Zm.19,0a.69.69,0,0,0,.68.7.7.7,0,0,0,0-1.39A.68.68,0,0,0,94.55,29.24Z"/><path class="cls-1" d="M97.23,28.4a.68.68,0,0,1,.4.1.42.42,0,0,1,.19.37.44.44,0,0,1-.43.46l.54.75H97.7l-.51-.73h0v.73H97V28.4Zm-.09.78h.12c.23,0,.37-.11.37-.31a.26.26,0,0,0-.13-.24.42.42,0,0,0-.24-.05h-.12Z"/></svg>